<svg width="47" height="47" viewBox="0 0 47 47" fill="none" xmlns="http://www.w3.org/2000/svg">
<path d="M21.5416 33.2917H25.4583V25.4583H33.2916V21.5417H25.4583V13.7083H21.5416V21.5417H13.7083V25.4583H21.5416V33.2917ZM23.5 43.0833C20.7909 43.0833 18.2451 42.5774 15.8625 41.5656C13.4798 40.5212 11.4073 39.1177 9.64475 37.3552C7.88225 35.5927 6.47878 33.5201 5.43433 31.1375C4.42253 28.7549 3.91663 26.209 3.91663 23.5C3.91663 20.791 4.42253 18.2451 5.43433 15.8625C6.47878 13.4799 7.88225 11.4073 9.64475 9.6448C11.4073 7.88229 13.4798 6.49514 15.8625 5.48334C18.2451 4.43889 20.7909 3.91667 23.5 3.91667C26.209 3.91667 28.7548 4.43889 31.1375 5.48334C33.5201 6.49514 35.5927 7.88229 37.3552 9.6448C39.1177 11.4073 40.5048 13.4799 41.5166 15.8625C42.5611 18.2451 43.0833 20.791 43.0833 23.5C43.0833 26.209 42.5611 28.7549 41.5166 31.1375C40.5048 33.5201 39.1177 35.5927 37.3552 37.3552C35.5927 39.1177 33.5201 40.5212 31.1375 41.5656C28.7548 42.5774 26.209 43.0833 23.5 43.0833ZM23.5 39.1667C27.8736 39.1667 31.5781 37.649 34.6135 34.6135C37.6489 31.5781 39.1666 27.8736 39.1666 23.5C39.1666 19.1264 37.6489 15.4219 34.6135 12.3865C31.5781 9.35105 27.8736 7.83334 23.5 7.83334C19.1263 7.83334 15.4218 9.35105 12.3864 12.3865C9.351 15.4219 7.83329 19.1264 7.83329 23.5C7.83329 27.8736 9.351 31.5781 12.3864 34.6135C15.4218 37.649 19.1263 39.1667 23.5 39.1667Z" fill="#FEF7FF"/>
</svg>
